<svg version="1.2" xmlns="http://www.w3.org/2000/svg" viewBox="0 0 216 199" width="545" height="502">
	<title>FREEBSD_Logo_Vert_Pos_SPOT-ai</title>
	<style>
		.s0 { fill: #ab2928 } 
	</style>
	<g id="Layer 1">
		<g id="&lt;Group&gt;">
			<g id="&lt;Group&gt;">
				<g id="&lt;Group&gt;">
					<path id="&lt;Compound Path&gt;" fill-rule="evenodd" class="s0" d="m159.7 218.6c5.9 1.7 11 6.9 12.7 12.8 1.8 6.4-0.2 12.9-4.5 17.8 5.2 2.9 9.7 7.3 11.5 13.2 1.6 5.4 1.2 11.7-1.5 16.7-3.1 5.5-8.8 9.9-14.9 11.2-3.4 0.7-6.9 0.5-10.3 0.5-3.6 0-17.3 0-20.8 0-2.7 0-4.1-1.9-4.1-4.3q0-7.8 0-15.6c0-15.2 0-18.1 0-33.3 0-24.8 26.3-20.6 31.9-19zm-24.8 20v9.3h21.8c8.5 0 9.9-11.9 8.7-15.4-1.3-3.6-4.6-6-8.1-7.1-2.9-0.7-22.4-5.3-22.4 13.2zm0 16c0 0 0 25.9 0 29 0 0.8 0 0.6 0.8 0.6 1.9 0 14.3 0 16.2 0 4.6 0 9.2 0.2 13.4-1.9 5.3-2.6 8.4-9.6 7.8-15.3-0.5-5.7-4.5-9.6-9.7-11.6-2.6-1-6.3-0.8-9-0.8-3 0-19.5 0-19.5 0z"/>
				</g>
				<g id="&lt;Group&gt;">
					<path id="&lt;Compound Path&gt;" fill-rule="evenodd" class="s0" d="m234.8 222.4c0-3.2 1.9-4.8 5.8-4.8h19.7c19.5 0 29.6 18.9 29.6 37.1 0 18.6-12.1 36.5-31.6 36.5h-19.3c-3.2 0-4.2-0.6-4.2-4.1zm7.4 2.5v59h15.6c15.8 0 24.2-14.5 24.2-29.2 0-15.1-7.6-29.8-22.8-29.8z"/>
				</g>
				<path id="&lt;Compound Path&gt;" class="s0" d="m205 225c-6.4 0-12.3 5.2-12.3 12.1 0 6.2 8.3 9.8 16.5 14.2 8.8 4.8 18.1 9.5 18.1 19.6 0 13.9-10.4 21.1-23.8 21.1-6.1 0-11.7-1.7-16.7-4.9-1.7-1.1-2.6-2.6-2.6-4.2 0-2.3 1.1-3.3 3.3-3.3 1.1 0 2.2 0.3 3.4 1.1 3.8 2.3 8.6 3.7 12.9 3.7 8.5 0 15.6-3.7 15.6-13 0-5.8-7-9.5-14.5-13.5-9.5-4.9-20.2-10.3-20.2-20.4 0-12.7 9.7-20.1 21.8-20.1 5.3 0 11 1.4 16.5 4.5 1.9 1 2.7 2.8 2.7 4.4 0 2-1.3 3.8-3.4 3.8-1.1 0-2.3-0.9-3.6-1.7-3.2-2-8.7-3.4-13.7-3.4z"/>
				<g id="&lt;Group&gt;">
					<path id="&lt;Compound Path&gt;" class="s0" d="m-20.5 287.7c-0.1 1.7-1.3 3.3-3.5 3.3-2.1 0-3.3-1.7-3.3-3.4v-32.3c0-9.1 6.3-16.3 18.3-16.3 6.2 0 11 1.1 15 2.7 1.5 0.6 2.5 2 2.5 3.2 0 2.1-1.6 2.8-3.1 2.8-2.8 0-6.6-2.2-12.4-2.2-8.5 0-13.5 4.2-13.5 10.4z"/>
				</g>
				<path id="&lt;Path&gt;" class="s0" d="m-61.2 254.6v33.2c-0.1 1.7-1.2 3.2-3.4 3.2-2.1 0-3.3-1.7-3.3-3.4v-47.4-1.1c0.4-15.4 10.7-23 21.6-23h13c2.9 0 4.4 1.2 4.4 3.5 0 2.2-1.5 3.3-4.4 3.3h-12.8c-8.1 0-15 5-15 16.3v4.8c0 0 0-1.6 0 3.9h22.3c1.9 0 3.4 1.5 3.4 3.3 0 1.9-1.5 3.4-3.4 3.4z"/>
				<g id="&lt;Group&gt;">
					<path id="&lt;Compound Path&gt;" fill-rule="evenodd" class="s0" d="m117.4 268.5q-1 1-2.8 1h-40l0.2 0.5c0.9 3 2.5 5.8 4.7 8 2.6 2.6 5.7 4.3 9.4 5q5.1 1.1 10.3-0.7 1.3-0.4 2.6-1.1 0.3-0.1 0.5-0.2c0.4-0.2 0.7-0.4 1.2-0.4 1.3 0 2.4 0.5 3.1 1.2 0.9 1.1 0.9 3.1 0 4.3-1.3 1.6-3.5 2.3-5.4 2.9-6.2 1.8-12 1.8-17 0.1-11.6-4.1-18.8-16.4-16.8-28.7 1.8-11.8 13.1-21.4 25.2-21.4 6 0 11.6 1.9 15.9 5.5 5.5 4.4 8.9 10.5 9.7 17 0.4 2.4 0.5 5.4-0.8 7zm-6-6.1c0-4.4-3.4-9.4-6.6-12-3.7-2.9-7.5-4.3-12-4.3-4.4 0-8 1.1-11 3.4-4.2 3.3-7 8-7.7 12.9v0.4h37.3z"/>
				</g>
				<path id="&lt;Compound Path&gt;" fill-rule="evenodd" class="s0" d="m58.8 268.5q-0.9 1-2.8 1h-39.9l0.1 0.5c0.9 3 2.6 5.8 4.7 8 2.7 2.6 5.7 4.3 9.4 5q5.2 1.1 10.4-0.7 1.2-0.4 2.6-1.1 0.2-0.1 0.4-0.2c0.4-0.2 0.8-0.4 1.2-0.4 1.3 0 2.4 0.5 3.1 1.2 1 1.1 1 3.1 0 4.3-1.2 1.6-3.4 2.3-5.4 2.9-6.2 1.8-11.9 1.8-17 0.1-11.5-4.1-18.8-16.4-16.8-28.7 1.9-11.8 13.2-21.4 25.2-21.4 6.1 0 11.6 1.9 16 5.5 5.4 4.4 8.9 10.5 9.7 17 0.3 2.4 0.5 5.4-0.9 7zm-6-6.1c0-4.4-3.3-9.4-6.6-12-3.7-2.9-7.5-4.3-12-4.3-4.3 0-7.9 1.1-10.9 3.4-4.3 3.3-7.1 8-7.7 12.9l-0.1 0.4h37.3z"/>
			</g>
			<g id="&lt;Group&gt;">
				<path id="&lt;Compound Path&gt;" fill-rule="evenodd" class="s0" d="m289.7 221.6q0 0.8-0.3 1.6-0.3 0.7-0.8 1.2-0.5 0.5-1.2 0.8-0.7 0.3-1.5 0.3-0.9 0-1.6-0.3-0.7-0.3-1.2-0.8-0.5-0.6-0.8-1.3-0.3-0.7-0.3-1.5 0-0.9 0.3-1.6 0.4-0.8 0.9-1.3 0.5-0.5 1.2-0.8 0.7-0.3 1.5-0.3 0.8 0 1.5 0.3 0.7 0.3 1.2 0.8 0.5 0.5 0.8 1.3 0.3 0.7 0.3 1.6zm-0.8 0q0-0.8-0.2-1.4-0.3-0.6-0.7-1-0.4-0.4-0.9-0.7-0.6-0.2-1.2-0.2-0.6 0-1.2 0.2-0.5 0.3-1 0.7-0.4 0.4-0.6 1-0.2 0.6-0.2 1.4 0 0.6 0.2 1.2 0.2 0.6 0.6 1.1 0.4 0.4 0.9 0.7 0.6 0.2 1.3 0.2 0.6 0 1.2-0.2 0.5-0.3 0.9-0.7 0.4-0.4 0.7-1 0.2-0.6 0.2-1.3zm-3.8 2.2h-0.7v-4.3h1.7q0.7 0 1.1 0.3 0.4 0.2 0.4 0.9 0 0.6-0.3 0.9-0.3 0.2-0.8 0.3l1.2 1.9h-0.8l-1.1-1.8h-0.7zm0.8-2.5q0.2 0 0.4 0 0.2-0.1 0.3-0.1 0.2-0.1 0.2-0.2 0.1-0.2 0.1-0.4 0-0.2-0.1-0.3 0-0.1-0.2-0.2-0.1-0.1-0.3-0.1-0.2 0-0.3 0h-0.9v1.3z"/>
			</g>
			<g id="&lt;Group&gt;">
			</g>
			<g id="&lt;Group&gt;">
				<g id="&lt;Group&gt;">
					<path id="&lt;Path&gt;" class="s0" d="m194.3 12.6c9.9 9.9-17.5 53.4-22.2 58-4.6 4.6-16.4 0.4-26.3-9.5-9.9-9.9-14.1-21.7-9.5-26.3 4.6-4.7 48.1-32.1 58-22.2z"/>
					<path id="&lt;Path&gt;" class="s0" d="m55.5 23.1c-15.1-8.6-36.6-18.1-43.4-11.3-6.9 6.9 3 28.9 11.6 44 7.7-13.4 18.7-24.6 31.8-32.7z"/>
					<path id="&lt;Path&gt;" class="s0" d="m179.2 67.2c1.4 4.7 1.1 8.6-1.1 10.9-5.3 5.2-19.5-0.4-32.3-12.6q-1.4-1.2-2.7-2.5c-4.6-4.6-8.3-9.6-10.6-14.1-4.5-8.1-5.6-15.2-2.2-18.6 1.9-1.9 4.8-2.4 8.4-1.7 2.4-1.5 5.2-3.2 8.2-4.9-12.4-6.4-26.5-10.1-41.4-10.1-49.6 0-89.8 40.2-89.8 89.8 0 49.6 40.2 89.8 89.8 89.8 49.6 0 89.8-40.2 89.8-89.8 0-16-4.2-31-11.6-44-1.5 2.9-3.1 5.5-4.5 7.8z"/>
				</g>
			</g>
		</g>
	</g>
</svg>